<svg version="1.1" xmlns="http://www.w3.org/2000/svg" viewBox="0 0 666.4955186923985 318.8936645662949" width="666.4955186923985" height="318.8936645662949" filter="invert(93%) hue-rotate(180deg)">
  <!-- svg-source:excalidraw -->
  
  <defs>
    <style class="style-fonts">
      @font-face {
        font-family: "Virgil";
        src: url("https://excalidraw.com/Virgil.woff2");
      }
      @font-face {
        font-family: "Cascadia";
        src: url("https://excalidraw.com/Cascadia.woff2");
      }
      @font-face {
        font-family: "Assistant";
        src: url("https://excalidraw.com/Assistant-Regular.woff2");
      }
    </style>
    
  </defs>
  <g stroke-linecap="round" transform="translate(108.37167646634862 55.60656490055237) rotate(0 65 44.5)"><path d="M0 0 C38.43 0, 76.85 0, 130 0 M0 0 C45.73 0, 91.45 0, 130 0 M130 0 C130 34.27, 130 68.53, 130 89 M130 0 C130 28.28, 130 56.55, 130 89 M130 89 C85.93 89, 41.86 89, 0 89 M130 89 C79.37 89, 28.74 89, 0 89 M0 89 C0 56.99, 0 24.97, 0 0 M0 89 C0 53.41, 0 17.83, 0 0" stroke="#1e1e1e" stroke-width="1" fill="none"></path></g><g transform="translate(120.52747812104349 10) rotate(0 52.733333587646484 17.5)"><text x="0" y="0" font-family="Virgil, Segoe UI Emoji" font-size="28px" fill="#099268" text-anchor="start" style="white-space: pre;" direction="ltr" dominant-baseline="text-before-edge">Stringer</text></g><g stroke-linecap="round"><g transform="translate(108.72301594133683 99.60656490055237) rotate(0 64.7645804272106 -0.17566973749417514)"><path d="M0 0 C50.19 -0.14, 100.38 -0.27, 129.53 -0.35 M0 0 C36.88 -0.1, 73.77 -0.2, 129.53 -0.35" stroke="#1e1e1e" stroke-width="1" fill="none"></path></g></g><mask></mask><g stroke-linecap="round" transform="translate(10 196.56945854651576) rotate(0 47.563586587869054 23.011120648146317)"><path d="M0 0 C27.47 0, 54.93 0, 95.13 0 M0 0 C36.61 0, 73.22 0, 95.13 0 M95.13 0 C95.13 14.65, 95.13 29.31, 95.13 46.02 M95.13 0 C95.13 17.82, 95.13 35.65, 95.13 46.02 M95.13 46.02 C64.42 46.02, 33.7 46.02, 0 46.02 M95.13 46.02 C59.37 46.02, 23.62 46.02, 0 46.02 M0 46.02 C0 27.62, 0 9.22, 0 0 M0 46.02 C0 31.77, 0 17.52, 0 0" stroke="#1e1e1e" stroke-width="1" fill="none"></path></g><g transform="translate(51.705253477059614 207.5805791946621) rotate(0 5.858333110809326 12)"><text x="5.858333110809326" y="0" font-family="Cascadia, Segoe UI Emoji" font-size="20px" fill="#343a40" text-anchor="middle" style="white-space: pre;" direction="ltr" dominant-baseline="text-before-edge">1</text></g><g stroke-linecap="round" transform="translate(229.89640957684355 199.79519105800938) rotate(0 68.41400778038565 54.549236754142754)"><path d="M0 0 C53.03 0, 106.06 0, 136.83 0 M0 0 C52.4 0, 104.81 0, 136.83 0 M136.83 0 C136.83 25, 136.83 50, 136.83 109.1 M136.83 0 C136.83 34.18, 136.83 68.36, 136.83 109.1 M136.83 109.1 C83.08 109.1, 29.32 109.1, 0 109.1 M136.83 109.1 C83.82 109.1, 30.82 109.1, 0 109.1 M0 109.1 C0 75.1, 0 41.11, 0 0 M0 109.1 C0 85.81, 0 62.51, 0 0" stroke="#1e1e1e" stroke-width="1" fill="none"></path></g><g transform="translate(22.633813554748713 162.70503840883794) rotate(0 35.875 17.5)"><text x="0" y="0" font-family="Virgil, Segoe UI Emoji" font-size="28px" fill="#099268" text-anchor="start" style="white-space: pre;" direction="ltr" dominant-baseline="text-before-edge">Value</text></g><g transform="translate(252.08503573430062 162.27877880662845) rotate(0 42.11666488647461 17.5)"><text x="0" y="0" font-family="Virgil, Segoe UI Emoji" font-size="28px" fill="#099268" text-anchor="start" style="white-space: pre;" direction="ltr" dominant-baseline="text-before-edge">iTable</text></g><g stroke-linecap="round"><g transform="translate(230.1996920271199 245.3116033093903) rotate(0 68.07813557352279 0.1967175497238145)"><path d="M0 0 C22.69 0.07, 113.46 0.33, 136.16 0.39 M0 0 C22.69 0.07, 113.46 0.33, 136.16 0.39" stroke="#1e1e1e" stroke-width="1" fill="none"></path></g></g><mask></mask><g transform="translate(155.88854765142446 65.77946720717043) rotate(0 17.575000762939453 12)"><text x="0" y="0" font-family="Cascadia, Segoe UI Emoji" font-size="20px" fill="#1e1e1e" text-anchor="start" style="white-space: pre;" direction="ltr" dominant-baseline="text-before-edge">tab</text></g><g transform="translate(147.35211476573386 107.16869642575654) rotate(0 23.433332443237305 12)"><text x="0" y="0" font-family="Cascadia, Segoe UI Emoji" font-size="20px" fill="#1e1e1e" text-anchor="start" style="white-space: pre;" direction="ltr" dominant-baseline="text-before-edge">data</text></g><g stroke-linecap="round"><g transform="translate(140.56733316379427 117.90554160602426) rotate(0 -44.244850210609 19.510473731516242)"><path d="M0 0 C-29.85 0.24, -59.7 0.47, -88.49 0.7 M0 0 C-23.52 0.19, -47.03 0.37, -88.49 0.7 M-88.49 0.7 C-88.33 12.82, -88.18 24.93, -88 39.02 M-88.49 0.7 C-88.36 10.43, -88.24 20.16, -88 39.02" stroke="#343a40" stroke-width="1" fill="none"></path></g><g transform="translate(140.56733316379427 117.90554160602426) rotate(0 -44.244850210609 19.510473731516242)"><path d="M-94.78 21.1 C-92.49 27.15, -90.21 33.19, -88 39.02 M-94.78 21.1 C-92.98 25.86, -91.18 30.63, -88 39.02" stroke="#343a40" stroke-width="1" fill="none"></path></g><g transform="translate(140.56733316379427 117.90554160602426) rotate(0 -44.244850210609 19.510473731516242)"><path d="M-81.68 20.93 C-83.81 27.03, -85.94 33.14, -88 39.02 M-81.68 20.93 C-83.36 25.74, -85.04 30.55, -88 39.02" stroke="#343a40" stroke-width="1" fill="none"></path></g></g><mask></mask><g stroke-linecap="round"><g transform="translate(198.09197627090452 78.19740595026579) rotate(0 50.2883053000221 41.10633543370501)"><path d="M0 0 C36.43 0.1, 72.86 0.19, 100 0.26 M0 0 C32.71 0.09, 65.43 0.17, 100 0.26 M100 0.26 C100.13 18.92, 100.26 37.58, 100.58 82.21 M100 0.26 C100.22 31.35, 100.44 62.43, 100.58 82.21" stroke="#343a40" stroke-width="1" fill="none"></path></g><g transform="translate(198.09197627090452 78.19740595026579) rotate(0 50.2883053000221 41.10633543370501)"><path d="M91.86 58.78 C95.04 67.32, 98.21 75.85, 100.58 82.21 M91.86 58.78 C94.71 66.45, 97.56 74.11, 100.58 82.21" stroke="#343a40" stroke-width="1" fill="none"></path></g><g transform="translate(198.09197627090452 78.19740595026579) rotate(0 50.2883053000221 41.10633543370501)"><path d="M108.96 58.66 C105.91 67.24, 102.85 75.82, 100.58 82.21 M108.96 58.66 C106.22 66.37, 103.48 74.07, 100.58 82.21" stroke="#343a40" stroke-width="1" fill="none"></path></g></g><mask></mask><g transform="translate(261.78961520944426 263.5242741768003) rotate(0 35.150001525878906 12)"><text x="0" y="0" font-family="Cascadia, Segoe UI Emoji" font-size="20px" fill="#1e1e1e" text-anchor="start" style="white-space: pre;" direction="ltr" dominant-baseline="text-before-edge">fun[0]</text></g><g transform="translate(433.8788499912266 267.0078619254195) rotate(0 111.30833435058594 12)"><text x="0" y="0" font-family="Cascadia, Segoe UI Emoji" font-size="20px" fill="#1e1e1e" text-anchor="start" style="white-space: pre;" direction="ltr" dominant-baseline="text-before-edge">(*CustomInt).String</text></g><g transform="translate(437.62798363214597 208.48358774861907) rotate(0 87.875 12)"><text x="0" y="0" font-family="Cascadia, Segoe UI Emoji" font-size="20px" fill="#1e1e1e" text-anchor="start" style="white-space: pre;" direction="ltr" dominant-baseline="text-before-edge">type(CustomInt)</text></g><g transform="translate(254.82243971220578 209.8770228480667) rotate(0 41.00833511352539 12)"><text x="0" y="0" font-family="Cascadia, Segoe UI Emoji" font-size="20px" fill="#343a40" text-anchor="start" style="white-space: pre;" direction="ltr" dominant-baseline="text-before-edge">uintptr</text></g><g stroke-linecap="round"><g transform="translate(345.3957211763018 223.1260258116631) rotate(0 40.38201358979404 -0.24457674521022454)"><path d="M0 0 C29.72 -0.18, 59.44 -0.36, 80.76 -0.49 M0 0 C27.93 -0.17, 55.86 -0.34, 80.76 -0.49" stroke="#343a40" stroke-width="1" fill="none"></path></g><g transform="translate(345.3957211763018 223.1260258116631) rotate(0 40.38201358979404 -0.24457674521022454)"><path d="M57.32 8.2 C65.95 5, 74.57 1.81, 80.76 -0.49 M57.32 8.2 C65.43 5.2, 73.54 2.19, 80.76 -0.49" stroke="#343a40" stroke-width="1" fill="none"></path></g><g transform="translate(345.3957211763018 223.1260258116631) rotate(0 40.38201358979404 -0.24457674521022454)"><path d="M57.22 -8.9 C65.88 -5.8, 74.55 -2.71, 80.76 -0.49 M57.22 -8.9 C65.36 -5.99, 73.5 -3.08, 80.76 -0.49" stroke="#343a40" stroke-width="1" fill="none"></path></g></g><mask></mask><g stroke-linecap="round"><g transform="translate(343.40548865430696 278.2662917859114) rotate(0 39.96464682312717 0.18057677944315742)"><path d="M0 0 C13.32 0.06, 66.61 0.3, 79.93 0.36 M0 0 C13.32 0.06, 66.61 0.3, 79.93 0.36" stroke="#343a40" stroke-width="1" fill="none"></path></g><g transform="translate(343.40548865430696 278.2662917859114) rotate(0 39.96464682312717 0.18057677944315742)"><path d="M56.4 8.81 C65.52 5.53, 74.65 2.26, 79.93 0.36 M56.4 8.81 C62.69 6.55, 68.98 4.29, 79.93 0.36" stroke="#343a40" stroke-width="1" fill="none"></path></g><g transform="translate(343.40548865430696 278.2662917859114) rotate(0 39.96464682312717 0.18057677944315742)"><path d="M56.48 -8.3 C65.57 -4.94, 74.66 -1.58, 79.93 0.36 M56.48 -8.3 C62.75 -5.98, 69.02 -3.67, 79.93 0.36" stroke="#343a40" stroke-width="1" fill="none"></path></g></g><mask></mask></svg>