<svg xmlns="http://www.w3.org/2000/svg" xmlns:xlink="http://www.w3.org/1999/xlink" xmlns:lucid="lucid" width="643.94" height="185.67"><g transform="translate(-239.5 -262.97279625664555)" lucid:page-tab-id="0_0"><g stroke="#e08fff" stroke-width="2"><path d="M375.7 392.62c-9.6 0-17.37-16.48-17.37-36.8 0-20.34 7.77-36.82 17.36-36.82h138.85c9.58 0 17.35 16.48 17.35 36.8 0 20.34-7.77 36.82-17.35 36.82z" fill="#f4d9ff"/><path d="M514.55 392.62c-9.6 0-17.36-16.48-17.36-36.8 0-20.34 7.76-36.82 17.35-36.82" fill="none"/></g><g stroke="#fe7070" stroke-width="2"><path d="M738.44 321.3c-8.84 0-16-12.83-16-28.66s7.16-28.67 16-28.67h128c8.83 0 16 12.84 16 28.67 0 15.83-7.17 28.67-16 28.67z" fill="#ffd9d9"/><path d="M866.44 321.3c-8.84 0-16-12.83-16-28.66s7.16-28.67 16-28.67" fill="none"/></g><path d="M364.22 339a6 6 0 0 1 6-6h124a6 6 0 0 1 6 6v17.33a6 6 0 0 1-6 6h-124a6 6 0 0 1-6-6z" fill="none"/><use xlink:href="#a" transform="matrix(1,0,0,1,364.21797140753836,332.9999999999612) translate(18.030864197530867 17.77777777777778)"/><use xlink:href="#b" transform="matrix(1,0,0,1,364.21797140753836,332.9999999999612) translate(29.141975308641975 44.44444444444444)"/><path d="M598.16 342.3l-4.67 2.2-5.08 2.13-5.03 1.87-5.1 1.65-5.24 1.47-5.5 1.28-5.8 1.1-6.24.93-6.8.7-7.47.48-7.84.17v-.95l7.8-.16 7.45-.46 6.75-.7 6.2-.93 5.77-1.1 5.45-1.27 5.2-1.45 5.06-1.65 5-1.85 5.02-2.12 5.06-2.38zm37.9-23.24l-13.25 8.65-11.54 7.4-3.23 1.86v-1.1l2.73-1.57 11.53-7.4 13.77-8.97zm35.6-18.35l-.4.14-5 1.86-5.02 2.12-5.23 2.46-5.67 2.97-4.4 2.54v-1.1l3.95-2.28 5.7-3 5.27-2.47 5.07-2.13 5.03-1.87.7-.24zm33.46-6.9l-6.18.66-6.2.9-5.78 1.1-5.42 1.3v-1l5.23-1.22 5.8-1.1 6.25-.93 6.2-.63z" stroke="#3a414a" stroke-width=".05" fill="#3a414a"/><path d="M533.43 356.27h-.56l.03-.45-.02-.5h.53z" fill="#3a414a"/><path stroke="#3a414a" stroke-width=".05" fill="#3a414a"/><path d="M719.82 292.7l-14.06 5.25-.4-9.26z" fill="#3a414a"/><path d="M721.36 292.64l-16.04 5.98-.45-10.57zm-15.15 4.63l12.08-4.5-12.4-3.45z" stroke="#3a414a" stroke-width=".05" fill="#3a414a"/><use xlink:href="#c" transform="matrix(1,0,0,1,598.1582356591562,328.54276359160013) translate(0 14.222222222222223)"/><use xlink:href="#d" transform="matrix(1,0,0,1,636.0645520307056,304.60470863048647) translate(0 14.222222222222223)"/><use xlink:href="#e" transform="matrix(1,0,0,1,671.6589605641433,287.963039216234) translate(0 14.222222222222223)"/><g stroke="#ffe342" stroke-width="2"><path d="M738.44 447.64c-8.84 0-16-12.83-16-28.66 0-15.84 7.16-28.67 16-28.67h128c8.83 0 16 12.84 16 28.68 0 15.83-7.17 28.66-16 28.66z" fill="#fff7a1"/><path d="M866.44 447.64c-8.84 0-16-12.83-16-28.66 0-15.84 7.16-28.67 16-28.67" fill="none"/></g><path d="M681.52 413.87l5.44 1.27 5.78 1.1 6.2.92 6.18.64-.1.95-6.2-.65-6.24-.92-5.8-1.1-5.45-1.28v-1zm-31.2-12.5l5.7 2.97 5.22 2.46 5.03 2.12 5 1.85.18.06v1l-.5-.16-5.03-1.87-5.07-2.13-5.26-2.48-5.73-3-4.63-2.68v-1.1zm-39.06-24.85l11.55 7.4 12.57 8.18v1.13l-13.08-8.53-11.54-7.37-.7-.4v-1.1zm-70-21.02l7.47.47 6.8.7 6.23.93 5.8 1.1 5.5 1.3 5.24 1.46 5.1 1.66 5.02 1.86 5.07 2.13 5.25 2.5 1.43.74v1.07l-1.86-.96-5.22-2.46-5.03-2.1-5-1.87-5.04-1.63-5.2-1.45-5.46-1.28-5.77-1.1-6.2-.9-6.75-.72-7.44-.47-7.8-.16v-.96z" stroke="#3a414a" stroke-width=".05" fill="#3a414a"/><path d="M533.43 355.34l-.02.95-.53-.02.03-.46-.02-.5z" fill="#3a414a"/><path stroke="#3a414a" stroke-width=".05" fill="#3a414a"/><path d="M719.82 418.9l-14.45 4.03.4-9.26z" fill="#3a414a"/><path d="M721.36 418.97l-16.5 4.6.46-10.58zm-15.5 3.33l12.42-3.46-12.07-4.5z" stroke="#3a414a" stroke-width=".05" fill="#3a414a"/><use xlink:href="#c" transform="matrix(1,0,0,1,600.1763125257437,362.844242923753) translate(0 14.222222222222223)"/><use xlink:href="#e" transform="matrix(1,0,0,1,671.453184390681,402.26165105825424) translate(0 14.222222222222223)"/><use xlink:href="#d" transform="matrix(1,0,0,1,635.3651910279667,385.22114465821227) translate(0 14.222222222222223)"/><path d="M253.73 355.98H240.5v-.96h13.23zm32.33 0H263.6v-.96h22.46zm32 0h-22.12v-.96h22.12zm24.8 0h-14.92v-.96h14.92zM240.5 355.98h-.5v-.96h.5z" stroke="#3a414a" stroke-width=".05" fill="#3a414a"/><path d="M356.35 355.5l-13 7.5v-15z" fill="#3a414a"/><path d="M357.3 355.5l-14.4 8.32v-16.64zm-13.46 6.68l11.56-6.68-11.56-6.68z" stroke="#3a414a" stroke-width=".05" fill="#3a414a"/><use xlink:href="#c" transform="matrix(1,0,0,1,253.73297730168457,344.8333333333333) translate(0 14.222222222222223)"/><use xlink:href="#d" transform="matrix(1,0,0,1,286.0617283950617,344.8333333333333) translate(0 14.222222222222223)"/><use xlink:href="#e" transform="matrix(1,0,0,1,318.0617283950617,344.8333333333333) translate(0 14.222222222222223)"/><defs><path fill="#3a414a" d="M160-131c35 5 61 23 61 61C221 17 115-2 30 0v-248c76 3 177-17 177 60 0 33-19 50-47 57zm-97-11c50-1 110 9 110-42 0-47-63-36-110-37v79zm0 115c55-2 124 14 124-45 0-56-70-42-124-44v89" id="f"/><path fill="#3a414a" d="M114-163C36-179 61-72 57 0H25l-1-190h30c1 12-1 29 2 39 6-27 23-49 58-41v29" id="g"/><path fill="#3a414a" d="M100-194c62-1 85 37 85 99 1 63-27 99-86 99S16-35 15-95c0-66 28-99 85-99zM99-20c44 1 53-31 53-75 0-43-8-75-51-75s-53 32-53 75 10 74 51 75" id="h"/><path fill="#3a414a" d="M141-36C126-15 110 5 73 4 37 3 15-17 15-53c-1-64 63-63 125-63 3-35-9-54-41-54-24 1-41 7-42 31l-33-3c5-37 33-52 76-52 45 0 72 20 72 64v82c-1 20 7 32 28 27v20c-31 9-61-2-59-35zM48-53c0 20 12 33 32 33 41-3 63-29 60-74-43 2-92-5-92 41" id="i"/><path fill="#3a414a" d="M85-194c31 0 48 13 60 33l-1-100h32l1 261h-30c-2-10 0-23-3-31C134-8 116 4 85 4 32 4 16-35 15-94c0-66 23-100 70-100zm9 24c-40 0-46 34-46 75 0 40 6 74 45 74 42 0 51-32 51-76 0-42-9-74-50-73" id="j"/><path fill="#3a414a" d="M96-169c-40 0-48 33-48 73s9 75 48 75c24 0 41-14 43-38l32 2c-6 37-31 61-74 61-59 0-76-41-82-99-10-93 101-131 147-64 4 7 5 14 7 22l-32 3c-4-21-16-35-41-35" id="k"/><path fill="#3a414a" d="M135-143c-3-34-86-38-87 0 15 53 115 12 119 90S17 21 10-45l28-5c4 36 97 45 98 0-10-56-113-15-118-90-4-57 82-63 122-42 12 7 21 19 24 35" id="l"/><path fill="#3a414a" d="M59-47c-2 24 18 29 38 22v24C64 9 27 4 27-40v-127H5v-23h24l9-43h21v43h35v23H59v120" id="m"/><g id="a"><use transform="matrix(0.06172839506172839,0,0,0.06172839506172839,0,0)" xlink:href="#f"/><use transform="matrix(0.06172839506172839,0,0,0.06172839506172839,14.814814814814813,0)" xlink:href="#g"/><use transform="matrix(0.06172839506172839,0,0,0.06172839506172839,22.160493827160494,0)" xlink:href="#h"/><use transform="matrix(0.06172839506172839,0,0,0.06172839506172839,34.50617283950617,0)" xlink:href="#i"/><use transform="matrix(0.06172839506172839,0,0,0.06172839506172839,46.85185185185185,0)" xlink:href="#j"/><use transform="matrix(0.06172839506172839,0,0,0.06172839506172839,59.197530864197525,0)" xlink:href="#k"/><use transform="matrix(0.06172839506172839,0,0,0.06172839506172839,70.30864197530863,0)" xlink:href="#i"/><use transform="matrix(0.06172839506172839,0,0,0.06172839506172839,82.65432098765432,0)" xlink:href="#l"/><use transform="matrix(0.06172839506172839,0,0,0.06172839506172839,93.76543209876543,0)" xlink:href="#m"/></g><path fill="#3a414a" d="M106-169C34-169 62-67 57 0H25v-261h32l-1 103c12-21 28-36 61-36 89 0 53 116 60 194h-32v-121c2-32-8-49-39-48" id="n"/><path fill="#3a414a" d="M117-194c89-4 53 116 60 194h-32v-121c0-31-8-49-39-48C34-167 62-67 57 0H25l-1-190h30c1 10-1 24 2 32 11-22 29-35 61-36" id="o"/><path fill="#3a414a" d="M100-194c63 0 86 42 84 106H49c0 40 14 67 53 68 26 1 43-12 49-29l28 8c-11 28-37 45-77 45C44 4 14-33 15-96c1-61 26-98 85-98zm52 81c6-60-76-77-97-28-3 7-6 17-6 28h103" id="p"/><path fill="#3a414a" d="M24 0v-261h32V0H24" id="q"/><g id="b"><use transform="matrix(0.06172839506172839,0,0,0.06172839506172839,0,0)" xlink:href="#k"/><use transform="matrix(0.06172839506172839,0,0,0.06172839506172839,11.11111111111111,0)" xlink:href="#n"/><use transform="matrix(0.06172839506172839,0,0,0.06172839506172839,23.45679012345679,0)" xlink:href="#i"/><use transform="matrix(0.06172839506172839,0,0,0.06172839506172839,35.80246913580247,0)" xlink:href="#o"/><use transform="matrix(0.06172839506172839,0,0,0.06172839506172839,48.148148148148145,0)" xlink:href="#o"/><use transform="matrix(0.06172839506172839,0,0,0.06172839506172839,60.49382716049382,0)" xlink:href="#p"/><use transform="matrix(0.06172839506172839,0,0,0.06172839506172839,72.8395061728395,0)" xlink:href="#q"/></g><path fill="#333" d="M23 0v-37h61v-169l-59 37v-38l62-41h46v211h57V0H23" id="r"/><use transform="matrix(0.04938271604938272,0,0,0.04938271604938272,0,0)" xlink:href="#r" id="c"/><path fill="#333" d="M182-182c0 78-84 86-111 141h115V0H12c-6-101 99-100 120-180 1-22-12-31-33-32-23 0-32 14-35 34l-49-3c5-45 32-70 84-70 51 0 83 22 83 69" id="s"/><use transform="matrix(0.04938271604938272,0,0,0.04938271604938272,0,0)" xlink:href="#s" id="d"/><path fill="#333" d="M128-127c34 4 56 21 59 58 7 91-148 94-172 28-4-9-6-17-7-26l51-5c1 24 16 35 40 36 23 0 39-12 38-36-1-31-31-36-65-34v-40c32 2 59-3 59-33 0-20-13-33-34-33s-33 13-35 32l-50-3c6-44 37-68 86-68 50 0 83 20 83 66 0 35-22 52-53 58" id="t"/><use transform="matrix(0.04938271604938272,0,0,0.04938271604938272,0,0)" xlink:href="#t" id="e"/></defs></g></svg>