<svg xmlns="http://www.w3.org/2000/svg" xmlns:xlink="http://www.w3.org/1999/xlink" xmlns:lucid="lucid" width="710.06" height="273.67"><g transform="translate(-721.4353638256097 -218.97279625664555)" lucid:page-tab-id="0_0"><g stroke="#e08fff" stroke-width="2"><path d="M1089.57 392.62c-9.58 0-17.35-16.48-17.35-36.8 0-20.34 7.77-36.82 17.35-36.82h138.86c9.6 0 17.36 16.48 17.36 36.8 0 20.34-7.78 36.82-17.37 36.82z" fill="#f4d9ff"/><path d="M1228.43 392.62c-9.6 0-17.36-16.48-17.36-36.8 0-20.34 7.77-36.82 17.36-36.82" fill="none"/></g><g stroke="#fe7070" stroke-width="2"><path d="M738.44 277.3c-8.84 0-16-12.83-16-28.66s7.16-28.67 16-28.67h128c8.83 0 16 12.84 16 28.67 0 15.83-7.17 28.67-16 28.67z" fill="#ffd9d9"/><path d="M866.44 277.3c-8.84 0-16-12.83-16-28.66s7.16-28.67 16-28.67" fill="none"/></g><path d="M1080.22 339.14a6 6 0 0 1 6-6h124a6 6 0 0 1 6 6v17.33a6 6 0 0 1-6 6h-124a6 6 0 0 1-6-6z" fill="none"/><use xlink:href="#a" transform="matrix(1,0,0,1,1080.2179714075382,333.14106345690476) translate(37.19753086419753 17.77777777777778)"/><use xlink:href="#b" transform="matrix(1,0,0,1,1080.2179714075382,333.14106345690476) translate(81.58024691358025 17.77777777777778)"/><use xlink:href="#c" transform="matrix(1,0,0,1,1080.2179714075382,333.14106345690476) translate(29.141975308641975 44.44444444444444)"/><g stroke="#fc9432" stroke-width="2"><path d="M738.44 491.64c-8.84 0-16-12.83-16-28.66 0-15.84 7.16-28.67 16-28.67h128c8.83 0 16 12.84 16 28.68 0 15.83-7.17 28.66-16 28.66z" fill="#ffdda6"/><path d="M866.44 491.64c-8.84 0-16-12.83-16-28.66 0-15.84 7.16-28.67 16-28.67" fill="none"/></g><g stroke="#ffe342" stroke-width="2"><path d="M738.44 384.47c-8.84 0-16-12.83-16-28.66 0-15.82 7.16-28.66 16-28.66h128c8.83 0 16 12.84 16 28.67 0 15.84-7.17 28.67-16 28.67z" fill="#fff7a1"/><path d="M866.44 384.47c-8.84 0-16-12.83-16-28.66 0-15.82 7.16-28.66 16-28.66" fill="none"/></g><path d="M1000.32 326.13l4.76 4.3 4.24 3.5 3.93 2.98 3.72 2.6 3.58 2.28 3.5 2.02 3.48 1.82 3.45 1.62 3.48 1.46 3.52 1.3 3.6 1.18 3.7 1.03 3.8.9 3.98.76 3.78.56-.14.94-3.8-.56-4-.76-3.87-.9-3.73-1.05-3.63-1.2-3.56-1.3-3.5-1.5-3.5-1.63-3.5-1.83-3.54-2.05-3.62-2.3-3.75-2.62-3.97-3-4.27-3.54-4.8-4.32-2.04-2.02v-1.33zM950.2 273.3l4.78 4.33 5.78 5.66 8.65 9.25 18.34 20.35v1.42L968.7 293.2l-8.62-9.24-5.75-5.64-4.76-4.3-3.54-2.92v-1.24zm-61.75-25.03l4.7.3 4.4.46 4.2.62 4 .76 3.87.9 3.73 1.05 3.63 1.2 3.56 1.3 3.5 1.5 3.5 1.63 3.5 1.83 3.55 2.06 1.56 1v1.12l-2.06-1.3-3.5-2.04-3.48-1.8-3.45-1.64-3.48-1.46-3.53-1.3-3.6-1.18-3.7-1.03-3.8-.9-3.97-.75-4.16-.6-4.38-.47-4.65-.28-4.47-.1.02-.94z" stroke="#3a414a" stroke-width=".05" fill="#3a414a"/><path d="M883.96 248.18l-.02.94h-.55l.04-.53-.04-.44z" fill="#3a414a"/><path stroke="#3a414a" stroke-width=".05" fill="#3a414a"/><path d="M1070.22 355.75l-13.44 6.66.95-14.96z" fill="#3a414a"/><path d="M1071.17 355.8l-14.9 7.4 1.04-16.6zm-13.86 5.82l11.97-5.94-11.12-7.4z" stroke="#3a414a" stroke-width=".05" fill="#3a414a"/><use xlink:href="#d" transform="matrix(1,0,0,1,936.1563303088647,256.0732278895536) translate(0 14.222222222222223)"/><use xlink:href="#e" transform="matrix(1,0,0,1,987.7389456785605,308.42569996198466) translate(0 14.222222222222223)"/><path d="M934.06 356.28h-50.13v-.95h50.13zm122.66 0H943.94v-.95h112.78z" stroke="#3a414a" stroke-width=".05" fill="#3a414a"/><path d="M883.95 356.28h-.56l.04-.52-.04-.43h.55z" fill="#3a414a"/><path stroke="#3a414a" stroke-width=".05" fill="#3a414a"/><path d="M1070.2 355.8l-12.98 7.5v-15z" fill="#3a414a"/><path d="M1071.16 355.8l-14.4 8.33V347.5zm-13.46 6.7l11.56-6.7-11.56-6.67z" stroke="#3a414a" stroke-width=".05" fill="#3a414a"/><use xlink:href="#f" transform="matrix(1,0,0,1,934.0617283950618,345.1410633772524) translate(0 14.222222222222223)"/><path d="M932.3 451.08l-1.25.72-3.5 1.83-3.5 1.65-3.5 1.48-3.57 1.32-3.63 1.18-3.73 1.04-3.86.9-4 .77-4.2.62-4.42.45-4.7.3-4.5.1v-.96l4.47-.1 4.66-.3 4.38-.45 4.16-.62 3.97-.75 3.8-.9 3.7-1.03 3.6-1.17 3.52-1.3 3.47-1.47 3.45-1.62 3.47-1.8 1.7-1zm124.54-93.9l-3.78.57-3.97.76-3.83.9-3.7 1.03-3.6 1.17-3.5 1.3-3.5 1.47-3.44 1.63-3.47 1.8-3.5 2.04-3.6 2.28-3.7 2.58-3.94 2.98-4.24 3.5-4.76 4.3-5.74 5.64-25.17 27.94-8.64 9.26-5.78 5.67-4.8 4.3-4.26 3.55-3.75 2.84v-1.2l3.16-2.4 4.24-3.5 4.76-4.3 5.75-5.64 8.63-9.24 25.2-27.96 5.77-5.66 4.8-4.32 4.26-3.54 3.96-3 3.74-2.62 3.62-2.3 3.54-2.04 3.5-1.83 3.5-1.65 3.5-1.47 3.57-1.33 3.63-1.18 3.73-1.04 3.86-.9 4-.77 3.8-.55z" stroke="#3a414a" stroke-width=".05" fill="#3a414a"/><path d="M883.96 463.44h-.57l.04-.52-.04-.42h.54z" fill="#3a414a"/><path stroke="#3a414a" stroke-width=".05" fill="#3a414a"/><path d="M1070.22 355.87l-12.5 8.3-.94-14.96z" fill="#3a414a"/><path d="M1071.17 355.8l-13.86 9.23-1.04-16.6zm-13.02 7.53l11.12-7.4-11.96-5.93z" stroke="#3a414a" stroke-width=".05" fill="#3a414a"/><use xlink:href="#g" transform="matrix(1,0,0,1,932.2950628679976,436.85083160737867) translate(0 14.222222222222223)"/><path d="M1269.06 356.98h-21.82v-.96h21.82zm37 0h-27.12v-.96h27.12zm37.26 0h-27.38v-.96h27.38zm38.38 0h-28.5v-.96h28.5zm34.8 0h-24.92v-.96h24.93z" stroke="#3a414a" stroke-width=".05" fill="#3a414a"/><path d="M1247.26 356.98h-.55l.07-.96h.5z" fill="#3a414a"/><path stroke="#3a414a" stroke-width=".05" fill="#3a414a"/><path d="M1430 356.5l-13 7.5v-15z" fill="#3a414a"/><path d="M1430.95 356.5l-14.4 8.32v-16.64zm-13.47 6.68l11.57-6.68-11.57-6.68z" stroke="#3a414a" stroke-width=".05" fill="#3a414a"/><use xlink:href="#f" transform="matrix(1,0,0,1,1269.0617283950617,345.8333333333333) translate(0 14.222222222222223)"/><use xlink:href="#d" transform="matrix(1,0,0,1,1306.0617283950617,345.8333333333333) translate(0 14.222222222222223)"/><use xlink:href="#g" transform="matrix(1,0,0,1,1343.3178079334737,345.8333333333333) translate(0 14.222222222222223)"/><g><use xlink:href="#e" transform="matrix(1,0,0,1,1381.7023226534284,345.8333333333333) translate(0 14.222222222222223)"/></g><defs><path fill="#3a414a" d="M63-220v92h138v28H63V0H30v-248h175v28H63" id="h"/><path fill="#3a414a" d="M141-36C126-15 110 5 73 4 37 3 15-17 15-53c-1-64 63-63 125-63 3-35-9-54-41-54-24 1-41 7-42 31l-33-3c5-37 33-52 76-52 45 0 72 20 72 64v82c-1 20 7 32 28 27v20c-31 9-61-2-59-35zM48-53c0 20 12 33 32 33 41-3 63-29 60-74-43 2-92-5-92 41" id="i"/><path fill="#3a414a" d="M117-194c89-4 53 116 60 194h-32v-121c0-31-8-49-39-48C34-167 62-67 57 0H25l-1-190h30c1 10-1 24 2 32 11-22 29-35 61-36" id="j"/><g id="a"><use transform="matrix(0.06172839506172839,0,0,0.06172839506172839,0,0)" xlink:href="#h"/><use transform="matrix(0.06172839506172839,0,0,0.06172839506172839,13.518518518518517,0)" xlink:href="#i"/><use transform="matrix(0.06172839506172839,0,0,0.06172839506172839,25.864197530864196,0)" xlink:href="#j"/></g><path fill="#3a414a" d="M24-231v-30h32v30H24zM24 0v-190h32V0H24" id="k"/><g id="b"><use transform="matrix(0.06172839506172839,0,0,0.06172839506172839,0,0)" xlink:href="#k"/><use transform="matrix(0.06172839506172839,0,0,0.06172839506172839,4.876543209876543,0)" xlink:href="#j"/></g><path fill="#3a414a" d="M96-169c-40 0-48 33-48 73s9 75 48 75c24 0 41-14 43-38l32 2c-6 37-31 61-74 61-59 0-76-41-82-99-10-93 101-131 147-64 4 7 5 14 7 22l-32 3c-4-21-16-35-41-35" id="l"/><path fill="#3a414a" d="M106-169C34-169 62-67 57 0H25v-261h32l-1 103c12-21 28-36 61-36 89 0 53 116 60 194h-32v-121c2-32-8-49-39-48" id="m"/><path fill="#3a414a" d="M100-194c63 0 86 42 84 106H49c0 40 14 67 53 68 26 1 43-12 49-29l28 8c-11 28-37 45-77 45C44 4 14-33 15-96c1-61 26-98 85-98zm52 81c6-60-76-77-97-28-3 7-6 17-6 28h103" id="n"/><path fill="#3a414a" d="M24 0v-261h32V0H24" id="o"/><g id="c"><use transform="matrix(0.06172839506172839,0,0,0.06172839506172839,0,0)" xlink:href="#l"/><use transform="matrix(0.06172839506172839,0,0,0.06172839506172839,11.11111111111111,0)" xlink:href="#m"/><use transform="matrix(0.06172839506172839,0,0,0.06172839506172839,23.45679012345679,0)" xlink:href="#i"/><use transform="matrix(0.06172839506172839,0,0,0.06172839506172839,35.80246913580247,0)" xlink:href="#j"/><use transform="matrix(0.06172839506172839,0,0,0.06172839506172839,48.148148148148145,0)" xlink:href="#j"/><use transform="matrix(0.06172839506172839,0,0,0.06172839506172839,60.49382716049382,0)" xlink:href="#n"/><use transform="matrix(0.06172839506172839,0,0,0.06172839506172839,72.8395061728395,0)" xlink:href="#o"/></g><path fill="#333" d="M23 0v-37h61v-169l-59 37v-38l62-41h46v211h57V0H23" id="p"/><use transform="matrix(0.04938271604938272,0,0,0.04938271604938272,0,0)" xlink:href="#p" id="d"/><path fill="#333" d="M182-182c0 78-84 86-111 141h115V0H12c-6-101 99-100 120-180 1-22-12-31-33-32-23 0-32 14-35 34l-49-3c5-45 32-70 84-70 51 0 83 22 83 69" id="q"/><use transform="matrix(0.04938271604938272,0,0,0.04938271604938272,0,0)" xlink:href="#q" id="e"/><path fill="#333" d="M128-127c34 4 56 21 59 58 7 91-148 94-172 28-4-9-6-17-7-26l51-5c1 24 16 35 40 36 23 0 39-12 38-36-1-31-31-36-65-34v-40c32 2 59-3 59-33 0-20-13-33-34-33s-33 13-35 32l-50-3c6-44 37-68 86-68 50 0 83 20 83 66 0 35-22 52-53 58" id="r"/><use transform="matrix(0.04938271604938272,0,0,0.04938271604938272,0,0)" xlink:href="#r" id="f"/><path fill="#333" d="M165-50V0h-47v-50H5v-38l105-160h55v161h33v37h-33zm-47-37l2-116L46-87h72" id="s"/><use transform="matrix(0.04938271604938272,0,0,0.04938271604938272,0,0)" xlink:href="#s" id="g"/></defs></g></svg>