<svg xmlns="http://www.w3.org/2000/svg" xmlns:xlink="http://www.w3.org/1999/xlink" xmlns:lucid="lucid" width="643.94" height="273.67"><g transform="translate(-239.5 -218.97279625664555)" lucid:page-tab-id="0_0"><g stroke="#e08fff" stroke-width="2"><path d="M375.7 392.62c-9.6 0-17.37-16.48-17.37-36.8 0-20.34 7.77-36.82 17.36-36.82h138.85c9.58 0 17.35 16.48 17.35 36.8 0 20.34-7.77 36.82-17.35 36.82z" fill="#f4d9ff"/><path d="M514.55 392.62c-9.6 0-17.36-16.48-17.36-36.8 0-20.34 7.76-36.82 17.35-36.82" fill="none"/></g><g stroke="#fe7070" stroke-width="2"><path d="M738.44 277.3c-8.84 0-16-12.83-16-28.66s7.16-28.67 16-28.67h128c8.83 0 16 12.84 16 28.67 0 15.83-7.17 28.67-16 28.67z" fill="#ffd9d9"/><path d="M866.44 277.3c-8.84 0-16-12.83-16-28.66s7.16-28.67 16-28.67" fill="none"/></g><path d="M364.22 339a6 6 0 0 1 6-6h124a6 6 0 0 1 6 6v17.33a6 6 0 0 1-6 6h-124a6 6 0 0 1-6-6z" fill="none"/><use xlink:href="#a" transform="matrix(1,0,0,1,364.21797140753836,332.9999999999612) translate(30.376543209876544 17.77777777777778)"/><use xlink:href="#b" transform="matrix(1,0,0,1,364.21797140753836,332.9999999999612) translate(74.75925925925927 17.77777777777778)"/><use xlink:href="#c" transform="matrix(1,0,0,1,364.21797140753836,332.9999999999612) translate(29.141975308641975 44.44444444444444)"/><path d="M637.85 291.27l-18 19.92-9 9.63-5.87 5.76-4.84 4.36-4.3 3.57-4 3.03-3.78 2.62-3.65 2.32-3.55 2.06-3.53 1.84-3.5 1.66-3.55 1.48-3.58 1.33-3.67 1.2-3.75 1.04-3.88.92-4.04.77-4.23.6-4.45.48-4.73.3-4.54.1v-.96l4.5-.1 4.7-.3 4.4-.45 4.2-.62 4-.76 3.84-.9 3.72-1.05 3.62-1.17 3.54-1.32 3.5-1.47 3.48-1.65 3.5-1.82 3.52-2.04 3.6-2.3 3.76-2.6 3.96-3.02 4.27-3.54 4.83-4.34 5.84-5.73 9-9.62 18.68-20.7zm67.33-40.98l-2.04.3-4 .76-3.84.9-3.72 1.03-3.62 1.17-3.54 1.32-3.5 1.46-3.48 1.64-3.5 1.82-3.52 2.04-3.62 2.3-3.74 2.6-3.96 3-4.28 3.55-4.8 4.35-2.3 2.24v-1.34l1.64-1.6 4.84-4.37 4.3-3.58 4-3.03 3.78-2.64 3.65-2.3 3.56-2.07 3.52-1.85 3.5-1.66 3.55-1.5 3.58-1.33 3.66-1.2 3.76-1.03 3.88-.9 4.04-.78 2.06-.3z" stroke="#3a414a" stroke-width=".05" fill="#3a414a"/><path d="M533.43 356.27h-.56l.03-.45-.02-.5h.53z" fill="#3a414a"/><path stroke="#3a414a" stroke-width=".05" fill="#3a414a"/><path d="M719.82 248.76l-13.9 5.65-.66-9.24z" fill="#3a414a"/><path d="M721.36 248.65l-15.86 6.45-.76-10.55zm-15 5.07l11.93-4.85-12.52-3.1z" stroke="#3a414a" stroke-width=".05" fill="#3a414a"/><use xlink:href="#d" transform="matrix(1,0,0,1,637.8512081165907,274.43249779344455) translate(0 14.222222222222223)"/><g stroke="#fc9432" stroke-width="2"><path d="M738.44 491.64c-8.84 0-16-12.83-16-28.66 0-15.84 7.16-28.67 16-28.67h128c8.83 0 16 12.84 16 28.68 0 15.83-7.17 28.66-16 28.66z" fill="#ffdda6"/><path d="M866.44 491.64c-8.84 0-16-12.83-16-28.66 0-15.84 7.16-28.67 16-28.67" fill="none"/></g><path d="M644.17 427.34l5.84 5.73 4.82 4.34 4.28 3.55 3.96 3 3.75 2.6 3.62 2.3 3.53 2.04 3.5 1.82 3.47 1.64 3.5 1.47 3.54 1.32 3.62 1.17 3.72 1.04 3.84.9 4 .76 2.04.3-.14.94-2.06-.3-4.04-.77-3.88-.92-3.75-1.05-3.65-1.2-3.58-1.32-3.54-1.48-3.5-1.65-3.54-1.84-3.57-2.06-3.65-2.32-3.78-2.63-4-3.03-4.3-3.57-4.84-4.37-5.5-5.4v-1.38zm-106.22-71.9l4.73.3 4.45.46 4.23.63 4.04.76 3.88.9 3.75 1.05 3.66 1.2 3.57 1.32 3.54 1.5 3.52 1.64 3.53 1.86 3.56 2.06 3.66 2.3 3.78 2.64 4 3.03 4.3 3.56 4.84 4.37 5.87 5.76 9 9.63 14.12 15.62v1.42l-14.8-16.4-9-9.62-5.84-5.73-4.82-4.34-4.26-3.55-3.96-3-3.75-2.6-3.6-2.3-3.54-2.04-3.5-1.83-3.48-1.64-3.5-1.47-3.54-1.32-3.62-1.18-3.72-1.03-3.84-.9-4-.77-4.2-.62-4.4-.46-4.7-.3-4.5-.1v-.94z" stroke="#3a414a" stroke-width=".05" fill="#3a414a"/><path d="M533.43 355.34l-.02.95-.53-.02.03-.46-.02-.5z" fill="#3a414a"/><path stroke="#3a414a" stroke-width=".05" fill="#3a414a"/><path d="M719.82 462.86l-14.56 3.6.67-9.25z" fill="#3a414a"/><path d="M721.36 462.97l-16.62 4.1.76-10.55zm-15.58 2.86l12.5-3.08-11.92-4.86z" stroke="#3a414a" stroke-width=".05" fill="#3a414a"/><use xlink:href="#e" transform="matrix(1,0,0,1,633.9725526127493,411.55689956081085) translate(0 14.222222222222223)"/><path d="M253.73 355.98H240.5v-.96h13.23zm32.33 0H263.6v-.96h22.46zm32 0h-22.12v-.96h22.12zm24.8 0h-14.92v-.96h14.92zM240.5 355.98h-.5v-.96h.5z" stroke="#3a414a" stroke-width=".05" fill="#3a414a"/><path d="M356.35 355.5l-13 7.5v-15z" fill="#3a414a"/><path d="M357.3 355.5l-14.4 8.32v-16.64zm-13.46 6.68l11.56-6.68-11.56-6.68z" stroke="#3a414a" stroke-width=".05" fill="#3a414a"/><use xlink:href="#d" transform="matrix(1,0,0,1,253.73297730168457,344.8333333333333) translate(0 14.222222222222223)"/><use xlink:href="#f" transform="matrix(1,0,0,1,286.0617283950617,344.8333333333333) translate(0 14.222222222222223)"/><use xlink:href="#e" transform="matrix(1,0,0,1,318.0617283950617,344.8333333333333) translate(0 14.222222222222223)"/><g stroke="#ffe342" stroke-width="2"><path d="M738.44 384.47c-8.84 0-16-12.83-16-28.66 0-15.82 7.16-28.66 16-28.66h128c8.83 0 16 12.84 16 28.67 0 15.84-7.17 28.67-16 28.67z" fill="#fff7a1"/><path d="M866.44 384.47c-8.84 0-16-12.83-16-28.66 0-15.82 7.16-28.66 16-28.66" fill="none"/></g><path d="M637.06 356.28H533.4v-.95h103.66zm69.9 0h-60.02v-.95h60z" stroke="#3a414a" stroke-width=".05" fill="#3a414a"/><path d="M533.4 356.28h-.53l.03-.46-.02-.5h.53z" fill="#3a414a"/><path stroke="#3a414a" stroke-width=".05" fill="#3a414a"/><path d="M720.43 355.8l-12.98 7.5v-15z" fill="#3a414a"/><path d="M721.4 355.8l-14.43 8.33V347.5zm-13.48 6.7l11.57-6.7-11.58-6.67z" stroke="#3a414a" stroke-width=".05" fill="#3a414a"/><g><use xlink:href="#f" transform="matrix(1,0,0,1,637.0607283950618,345.14106340036597) translate(0 14.222222222222223)"/></g><defs><path fill="#3a414a" d="M63-220v92h138v28H63V0H30v-248h175v28H63" id="g"/><path fill="#3a414a" d="M141-36C126-15 110 5 73 4 37 3 15-17 15-53c-1-64 63-63 125-63 3-35-9-54-41-54-24 1-41 7-42 31l-33-3c5-37 33-52 76-52 45 0 72 20 72 64v82c-1 20 7 32 28 27v20c-31 9-61-2-59-35zM48-53c0 20 12 33 32 33 41-3 63-29 60-74-43 2-92-5-92 41" id="h"/><path fill="#3a414a" d="M117-194c89-4 53 116 60 194h-32v-121c0-31-8-49-39-48C34-167 62-67 57 0H25l-1-190h30c1 10-1 24 2 32 11-22 29-35 61-36" id="i"/><g id="a"><use transform="matrix(0.06172839506172839,0,0,0.06172839506172839,0,0)" xlink:href="#g"/><use transform="matrix(0.06172839506172839,0,0,0.06172839506172839,13.518518518518517,0)" xlink:href="#h"/><use transform="matrix(0.06172839506172839,0,0,0.06172839506172839,25.864197530864196,0)" xlink:href="#i"/></g><path fill="#3a414a" d="M100-194c62-1 85 37 85 99 1 63-27 99-86 99S16-35 15-95c0-66 28-99 85-99zM99-20c44 1 53-31 53-75 0-43-8-75-51-75s-53 32-53 75 10 74 51 75" id="j"/><path fill="#3a414a" d="M84 4C-5 8 30-112 23-190h32v120c0 31 7 50 39 49 72-2 45-101 50-169h31l1 190h-30c-1-10 1-25-2-33-11 22-28 36-60 37" id="k"/><path fill="#3a414a" d="M59-47c-2 24 18 29 38 22v24C64 9 27 4 27-40v-127H5v-23h24l9-43h21v43h35v23H59v120" id="l"/><g id="b"><use transform="matrix(0.06172839506172839,0,0,0.06172839506172839,0,0)" xlink:href="#j"/><use transform="matrix(0.06172839506172839,0,0,0.06172839506172839,12.345679012345679,0)" xlink:href="#k"/><use transform="matrix(0.06172839506172839,0,0,0.06172839506172839,24.691358024691358,0)" xlink:href="#l"/></g><path fill="#3a414a" d="M96-169c-40 0-48 33-48 73s9 75 48 75c24 0 41-14 43-38l32 2c-6 37-31 61-74 61-59 0-76-41-82-99-10-93 101-131 147-64 4 7 5 14 7 22l-32 3c-4-21-16-35-41-35" id="m"/><path fill="#3a414a" d="M106-169C34-169 62-67 57 0H25v-261h32l-1 103c12-21 28-36 61-36 89 0 53 116 60 194h-32v-121c2-32-8-49-39-48" id="n"/><path fill="#3a414a" d="M100-194c63 0 86 42 84 106H49c0 40 14 67 53 68 26 1 43-12 49-29l28 8c-11 28-37 45-77 45C44 4 14-33 15-96c1-61 26-98 85-98zm52 81c6-60-76-77-97-28-3 7-6 17-6 28h103" id="o"/><path fill="#3a414a" d="M24 0v-261h32V0H24" id="p"/><g id="c"><use transform="matrix(0.06172839506172839,0,0,0.06172839506172839,0,0)" xlink:href="#m"/><use transform="matrix(0.06172839506172839,0,0,0.06172839506172839,11.11111111111111,0)" xlink:href="#n"/><use transform="matrix(0.06172839506172839,0,0,0.06172839506172839,23.45679012345679,0)" xlink:href="#h"/><use transform="matrix(0.06172839506172839,0,0,0.06172839506172839,35.80246913580247,0)" xlink:href="#i"/><use transform="matrix(0.06172839506172839,0,0,0.06172839506172839,48.148148148148145,0)" xlink:href="#i"/><use transform="matrix(0.06172839506172839,0,0,0.06172839506172839,60.49382716049382,0)" xlink:href="#o"/><use transform="matrix(0.06172839506172839,0,0,0.06172839506172839,72.8395061728395,0)" xlink:href="#p"/></g><path fill="#333" d="M23 0v-37h61v-169l-59 37v-38l62-41h46v211h57V0H23" id="q"/><use transform="matrix(0.04938271604938272,0,0,0.04938271604938272,0,0)" xlink:href="#q" id="d"/><path fill="#333" d="M128-127c34 4 56 21 59 58 7 91-148 94-172 28-4-9-6-17-7-26l51-5c1 24 16 35 40 36 23 0 39-12 38-36-1-31-31-36-65-34v-40c32 2 59-3 59-33 0-20-13-33-34-33s-33 13-35 32l-50-3c6-44 37-68 86-68 50 0 83 20 83 66 0 35-22 52-53 58" id="r"/><use transform="matrix(0.04938271604938272,0,0,0.04938271604938272,0,0)" xlink:href="#r" id="e"/><path fill="#333" d="M182-182c0 78-84 86-111 141h115V0H12c-6-101 99-100 120-180 1-22-12-31-33-32-23 0-32 14-35 34l-49-3c5-45 32-70 84-70 51 0 83 22 83 69" id="s"/><use transform="matrix(0.04938271604938272,0,0,0.04938271604938272,0,0)" xlink:href="#s" id="f"/></defs></g></svg>