<svg xmlns="http://www.w3.org/2000/svg" xmlns:xlink="http://www.w3.org/1999/xlink" xmlns:lucid="lucid" width="672" height="59.33"><g transform="translate(-432.43536382560956 -326.1410634569048)" lucid:page-tab-id="0_0"><g stroke="#fe7070" stroke-width="2"><path d="M449.44 384.47c-8.84 0-16-12.83-16-28.66 0-15.82 7.16-28.66 16-28.66h128c8.83 0 16 12.84 16 28.67 0 15.84-7.17 28.67-16 28.67z" fill="#ffd9d9"/><path d="M577.44 384.47c-8.84 0-16-12.83-16-28.66 0-15.82 7.16-28.66 16-28.66" fill="none"/></g><g stroke="#fc9432" stroke-width="2"><path d="M959.44 384.47c-8.84 0-16-12.83-16-28.66 0-15.82 7.16-28.66 16-28.66h128c8.83 0 16 12.84 16 28.67 0 15.84-7.17 28.67-16 28.67z" fill="#ffdda6"/><path d="M1087.44 384.47c-8.84 0-16-12.83-16-28.66 0-15.82 7.16-28.66 16-28.66" fill="none"/></g><g stroke="#ffe342" stroke-width="2"><path d="M704.44 384.47c-8.84 0-16-12.83-16-28.66 0-15.82 7.16-28.66 16-28.66h128c8.83 0 16 12.84 16 28.67 0 15.84-7.17 28.67-16 28.67z" fill="#fff7a1"/><path d="M832.44 384.47c-8.84 0-16-12.83-16-28.66 0-15.82 7.16-28.66 16-28.66" fill="none"/></g><path d="M594.93 355.8h78.02" stroke="#3a414a" fill="none"/><path d="M594.95 356.28h-.56l.04-.52-.04-.43h.55z" stroke="#3a414a" stroke-width=".05" fill="#3a414a"/><path d="M686.44 355.8l-13 7.5v-15z" stroke="#3a414a" fill="#3a414a"/><path d="M849.93 355.8H927.95" stroke="#3a414a" fill="none"/><path d="M849.95 356.28h-.56l.04-.52-.04-.43h.55z" stroke="#3a414a" stroke-width=".05" fill="#3a414a"/><path d="M941.43 355.8l-12.98 7.5v-15z" stroke="#3a414a" fill="#3a414a"/><path d="M439.2 346.2a6 6 0 0 1 6-6h111a6 6 0 0 1 6 6v22a6 6 0 0 1-6 6h-111a6 6 0 0 1-6-6z" fill="none"/><use xlink:href="#a" transform="matrix(1,0,0,1,439.20032261000097,340.20032261000085) translate(10.944444444444443 21.444444444444443)"/><use xlink:href="#b" transform="matrix(1,0,0,1,439.20032261000097,340.20032261000085) translate(99.70987654320987 21.444444444444443)"/><path d="M696.73 346.2a6 6 0 0 1 6-6h111a6 6 0 0 1 6 6v22a6 6 0 0 1-6 6h-111a6 6 0 0 1-6-6z" fill="none"/><use xlink:href="#a" transform="matrix(1,0,0,1,696.733428165604,340.20032261000085) translate(10.944444444444443 21.444444444444443)"/><use xlink:href="#c" transform="matrix(1,0,0,1,696.733428165604,340.20032261000085) translate(99.70987654320987 21.444444444444443)"/><path d="M948.84 346.2a6 6 0 0 1 6-6h111a6 6 0 0 1 6 6v22a6 6 0 0 1-6 6h-111a6 6 0 0 1-6-6z" fill="none"/><g><use xlink:href="#d" transform="matrix(1,0,0,1,948.8352025206092,340.20032261000085) translate(10.944444444444443 21.444444444444443)"/><use xlink:href="#e" transform="matrix(1,0,0,1,948.8352025206092,340.20032261000085) translate(99.70987654320987 21.444444444444443)"/></g><defs><path fill="#3a414a" d="M212-179c-10-28-35-45-73-45-59 0-87 40-87 99 0 60 29 101 89 101 43 0 62-24 78-52l27 14C228-24 195 4 139 4 59 4 22-46 18-125c-6-104 99-153 187-111 19 9 31 26 39 46" id="f"/><path fill="#3a414a" d="M106-169C34-169 62-67 57 0H25v-261h32l-1 103c12-21 28-36 61-36 89 0 53 116 60 194h-32v-121c2-32-8-49-39-48" id="g"/><path fill="#3a414a" d="M141-36C126-15 110 5 73 4 37 3 15-17 15-53c-1-64 63-63 125-63 3-35-9-54-41-54-24 1-41 7-42 31l-33-3c5-37 33-52 76-52 45 0 72 20 72 64v82c-1 20 7 32 28 27v20c-31 9-61-2-59-35zM48-53c0 20 12 33 32 33 41-3 63-29 60-74-43 2-92-5-92 41" id="h"/><path fill="#3a414a" d="M117-194c89-4 53 116 60 194h-32v-121c0-31-8-49-39-48C34-167 62-67 57 0H25l-1-190h30c1 10-1 24 2 32 11-22 29-35 61-36" id="i"/><path fill="#3a414a" d="M100-194c63 0 86 42 84 106H49c0 40 14 67 53 68 26 1 43-12 49-29l28 8c-11 28-37 45-77 45C44 4 14-33 15-96c1-61 26-98 85-98zm52 81c6-60-76-77-97-28-3 7-6 17-6 28h103" id="j"/><path fill="#3a414a" d="M24 0v-261h32V0H24" id="k"/><g id="a"><use transform="matrix(0.06172839506172839,0,0,0.06172839506172839,0,0)" xlink:href="#f"/><use transform="matrix(0.06172839506172839,0,0,0.06172839506172839,15.987654320987653,0)" xlink:href="#g"/><use transform="matrix(0.06172839506172839,0,0,0.06172839506172839,28.333333333333332,0)" xlink:href="#h"/><use transform="matrix(0.06172839506172839,0,0,0.06172839506172839,40.67901234567901,0)" xlink:href="#i"/><use transform="matrix(0.06172839506172839,0,0,0.06172839506172839,53.02469135802469,0)" xlink:href="#i"/><use transform="matrix(0.06172839506172839,0,0,0.06172839506172839,65.37037037037037,0)" xlink:href="#j"/><use transform="matrix(0.06172839506172839,0,0,0.06172839506172839,77.71604938271605,0)" xlink:href="#k"/></g><path fill="#3a414a" d="M27 0v-27h64v-190l-56 39v-29l58-41h29v221h61V0H27" id="l"/><use transform="matrix(0.06172839506172839,0,0,0.06172839506172839,0,0)" xlink:href="#l" id="b"/><path fill="#3a414a" d="M101-251c82-7 93 87 43 132L82-64C71-53 59-42 53-27h129V0H18c2-99 128-94 128-182 0-28-16-43-45-43s-46 15-49 41l-32-3c6-41 34-60 81-64" id="m"/><use transform="matrix(0.06172839506172839,0,0,0.06172839506172839,0,0)" xlink:href="#m" id="c"/><g id="d"><use transform="matrix(0.06172839506172839,0,0,0.06172839506172839,0,0)" xlink:href="#f"/><use transform="matrix(0.06172839506172839,0,0,0.06172839506172839,15.987654320987653,0)" xlink:href="#g"/><use transform="matrix(0.06172839506172839,0,0,0.06172839506172839,28.333333333333332,0)" xlink:href="#h"/><use transform="matrix(0.06172839506172839,0,0,0.06172839506172839,40.67901234567901,0)" xlink:href="#i"/><use transform="matrix(0.06172839506172839,0,0,0.06172839506172839,53.02469135802469,0)" xlink:href="#i"/><use transform="matrix(0.06172839506172839,0,0,0.06172839506172839,65.37037037037037,0)" xlink:href="#j"/><use transform="matrix(0.06172839506172839,0,0,0.06172839506172839,77.71604938271605,0)" xlink:href="#k"/></g><path fill="#3a414a" d="M67-158c22-48 132-52 116 29L158 0h-32l25-140c3-38-53-32-70-12C52-117 51-52 38 0H6l36-190h30" id="n"/><use transform="matrix(0.06172839506172839,0,0,0.06172839506172839,0,0)" xlink:href="#n" id="e"/></defs></g></svg>